<svg width="276" height="70" viewBox="0 0 276 70" fill="none" xmlns="http://www.w3.org/2000/svg">
<g filter="url(#filter0_b_610_3036)">
<mask id="path-1-outside-1_610_3036" maskUnits="userSpaceOnUse" x="1" y="2" width="275" height="67" fill="black">
<rect fill="white" x="1" y="2" width="275" height="67"/>
<path d="M22.541 20.5703V31.2344H38.8164V20.5703C38.8164 19.0469 39.1549 17.9043 39.832 17.1426C40.526 16.3809 41.4316 16 42.5488 16C43.6829 16 44.597 16.3809 45.291 17.1426C46.002 17.8874 46.3574 19.0299 46.3574 20.5703V49.8965C46.3574 51.4368 46.002 52.5879 45.291 53.3496C44.5801 54.1113 43.666 54.4922 42.5488 54.4922C41.4147 54.4922 40.5091 54.1113 39.832 53.3496C39.1549 52.571 38.8164 51.4199 38.8164 49.8965V37.3789H22.541V49.8965C22.541 51.4368 22.1855 52.5879 21.4746 53.3496C20.7637 54.1113 19.8496 54.4922 18.7324 54.4922C17.5983 54.4922 16.6927 54.1113 16.0156 53.3496C15.3385 52.571 15 51.4199 15 49.8965V20.5703C15 19.0469 15.3301 17.9043 15.9902 17.1426C16.6673 16.3809 17.5814 16 18.7324 16C19.8665 16 20.7806 16.3809 21.4746 17.1426C22.1855 17.8874 22.541 19.0299 22.541 20.5703Z"/>
<path d="M79.9238 40.4004C79.9238 42.4655 79.6022 44.3698 78.959 46.1133C78.3158 47.8568 77.3848 49.3548 76.166 50.6074C74.9473 51.86 73.4915 52.8249 71.7988 53.502C70.1061 54.1621 68.2018 54.4922 66.0859 54.4922C63.987 54.4922 62.0996 54.1536 60.4238 53.4766C58.748 52.7995 57.2923 51.8346 56.0566 50.582C54.8379 49.3125 53.9069 47.8229 53.2637 46.1133C52.6374 44.3867 52.3242 42.4824 52.3242 40.4004C52.3242 38.3014 52.6458 36.3802 53.2891 34.6367C53.9323 32.8932 54.8548 31.4036 56.0566 30.168C57.2585 28.9323 58.7142 27.9844 60.4238 27.3242C62.1335 26.6471 64.0208 26.3086 66.0859 26.3086C68.1849 26.3086 70.0892 26.6471 71.7988 27.3242C73.5085 28.0013 74.9727 28.9661 76.1914 30.2188C77.4102 31.4714 78.3327 32.9609 78.959 34.6875C79.6022 36.4141 79.9238 38.3184 79.9238 40.4004ZM72.9668 40.4004C72.9668 37.5736 72.3405 35.373 71.0879 33.7988C69.8522 32.2246 68.1849 31.4375 66.0859 31.4375C64.7318 31.4375 63.5384 31.793 62.5059 32.5039C61.4733 33.1979 60.6777 34.2305 60.1191 35.6016C59.5605 36.9727 59.2812 38.5723 59.2812 40.4004C59.2812 42.2116 59.5521 43.7943 60.0938 45.1484C60.6523 46.5026 61.4395 47.5436 62.4551 48.2715C63.4876 48.9824 64.6979 49.3379 66.0859 49.3379C68.1849 49.3379 69.8522 48.5508 71.0879 46.9766C72.3405 45.3854 72.9668 43.1934 72.9668 40.4004Z"/>
<path d="M89.5977 30.625L95.209 46.3672L101.252 29.9395C101.726 28.6191 102.191 27.6882 102.648 27.1465C103.105 26.5879 103.799 26.3086 104.73 26.3086C105.611 26.3086 106.355 26.6048 106.965 27.1973C107.591 27.7897 107.904 28.4753 107.904 29.2539C107.904 29.5586 107.845 29.9141 107.727 30.3203C107.625 30.7266 107.498 31.1074 107.346 31.4629C107.21 31.8184 107.049 32.2246 106.863 32.6816L100.211 49.1855C100.025 49.6595 99.7793 50.2604 99.4746 50.9883C99.1868 51.7161 98.8568 52.3424 98.4844 52.8672C98.1289 53.375 97.6803 53.7728 97.1387 54.0605C96.6139 54.3483 95.9707 54.4922 95.209 54.4922C94.2272 54.4922 93.4401 54.2721 92.8477 53.832C92.2721 53.375 91.8405 52.8841 91.5527 52.3594C91.2819 51.8177 90.8164 50.7598 90.1562 49.1855L83.5547 32.8594C83.4023 32.4531 83.2415 32.0469 83.0723 31.6406C82.9199 31.2344 82.7845 30.8197 82.666 30.3965C82.5645 29.9733 82.5137 29.6094 82.5137 29.3047C82.5137 28.8307 82.6576 28.3652 82.9453 27.9082C83.2331 27.4342 83.6309 27.0534 84.1387 26.7656C84.6465 26.4609 85.1966 26.3086 85.7891 26.3086C86.9401 26.3086 87.7272 26.6387 88.1504 27.2988C88.5905 27.959 89.0729 29.0677 89.5977 30.625Z"/>
<path d="M131.518 42.1016H117.959C117.976 43.6758 118.289 45.0638 118.898 46.2656C119.525 47.4674 120.346 48.373 121.361 48.9824C122.394 49.5918 123.528 49.8965 124.764 49.8965C125.593 49.8965 126.346 49.8034 127.023 49.6172C127.717 49.4141 128.386 49.1094 129.029 48.7031C129.673 48.2799 130.265 47.8314 130.807 47.3574C131.348 46.8835 132.051 46.2402 132.914 45.4277C133.27 45.123 133.777 44.9707 134.438 44.9707C135.148 44.9707 135.724 45.1654 136.164 45.5547C136.604 45.944 136.824 46.4941 136.824 47.2051C136.824 47.8314 136.579 48.5677 136.088 49.4141C135.597 50.2435 134.852 51.0475 133.854 51.8262C132.872 52.5879 131.628 53.2227 130.121 53.7305C128.632 54.2383 126.913 54.4922 124.967 54.4922C120.515 54.4922 117.053 53.2227 114.582 50.6836C112.111 48.1445 110.875 44.6999 110.875 40.3496C110.875 38.3014 111.18 36.4056 111.789 34.6621C112.398 32.9017 113.287 31.3952 114.455 30.1426C115.623 28.89 117.062 27.9336 118.771 27.2734C120.481 26.5964 122.377 26.2578 124.459 26.2578C127.167 26.2578 129.486 26.8333 131.416 27.9844C133.363 29.1185 134.818 30.5911 135.783 32.4023C136.748 34.2135 137.23 36.0586 137.23 37.9375C137.23 39.681 136.731 40.8151 135.732 41.3398C134.734 41.8477 133.329 42.1016 131.518 42.1016ZM117.959 38.166H130.527C130.358 35.7962 129.715 34.0273 128.598 32.8594C127.497 31.6745 126.042 31.082 124.23 31.082C122.504 31.082 121.082 31.6829 119.965 32.8848C118.865 34.0697 118.196 35.8301 117.959 38.166Z"/>
<path d="M149.977 44.4883V50.2773C149.977 51.6823 149.646 52.7402 148.986 53.4512C148.326 54.1452 147.488 54.4922 146.473 54.4922C145.474 54.4922 144.653 54.1367 144.01 53.4258C143.367 52.7148 143.045 51.6654 143.045 50.2773V30.9805C143.045 27.8659 144.171 26.3086 146.422 26.3086C147.573 26.3086 148.402 26.6725 148.91 27.4004C149.418 28.1283 149.697 29.2031 149.748 30.625C150.577 29.2031 151.424 28.1283 152.287 27.4004C153.167 26.6725 154.335 26.3086 155.791 26.3086C157.247 26.3086 158.66 26.6725 160.031 27.4004C161.402 28.1283 162.088 29.0931 162.088 30.2949C162.088 31.1413 161.792 31.8438 161.199 32.4023C160.624 32.944 159.997 33.2148 159.32 33.2148C159.066 33.2148 158.449 33.0625 157.467 32.7578C156.502 32.4362 155.647 32.2754 154.902 32.2754C153.887 32.2754 153.057 32.5462 152.414 33.0879C151.771 33.6126 151.271 34.3997 150.916 35.4492C150.561 36.4987 150.315 37.7513 150.18 39.207C150.044 40.6458 149.977 42.4062 149.977 44.4883Z"/>
<path d="M173.971 20.5703V31.2344H190.246V20.5703C190.246 19.0469 190.585 17.9043 191.262 17.1426C191.956 16.3809 192.861 16 193.979 16C195.113 16 196.027 16.3809 196.721 17.1426C197.432 17.8874 197.787 19.0299 197.787 20.5703V49.8965C197.787 51.4368 197.432 52.5879 196.721 53.3496C196.01 54.1113 195.096 54.4922 193.979 54.4922C192.844 54.4922 191.939 54.1113 191.262 53.3496C190.585 52.571 190.246 51.4199 190.246 49.8965V37.3789H173.971V49.8965C173.971 51.4368 173.615 52.5879 172.904 53.3496C172.193 54.1113 171.279 54.4922 170.162 54.4922C169.028 54.4922 168.122 54.1113 167.445 53.3496C166.768 52.571 166.43 51.4199 166.43 49.8965V20.5703C166.43 19.0469 166.76 17.9043 167.42 17.1426C168.097 16.3809 169.011 16 170.162 16C171.296 16 172.21 16.3809 172.904 17.1426C173.615 17.8874 173.971 19.0299 173.971 20.5703Z"/>
<path d="M223.406 50.582V49.6934C222.577 50.7428 221.705 51.623 220.791 52.334C219.877 53.0449 218.878 53.5697 217.795 53.9082C216.712 54.2637 215.476 54.4414 214.088 54.4414C212.412 54.4414 210.906 54.0944 209.568 53.4004C208.248 52.7064 207.224 51.75 206.496 50.5312C205.633 49.0586 205.201 46.9427 205.201 44.1836V30.4473C205.201 29.0592 205.514 28.0267 206.141 27.3496C206.767 26.6556 207.596 26.3086 208.629 26.3086C209.678 26.3086 210.525 26.6556 211.168 27.3496C211.811 28.0436 212.133 29.0762 212.133 30.4473V41.543C212.133 43.151 212.268 44.5052 212.539 45.6055C212.81 46.6888 213.292 47.5436 213.986 48.1699C214.697 48.7793 215.654 49.084 216.855 49.084C218.023 49.084 219.124 48.737 220.156 48.043C221.189 47.349 221.942 46.4434 222.416 45.3262C222.805 44.3444 223 42.1947 223 38.877V30.4473C223 29.0762 223.322 28.0436 223.965 27.3496C224.608 26.6556 225.446 26.3086 226.479 26.3086C227.511 26.3086 228.34 26.6556 228.967 27.3496C229.593 28.0267 229.906 29.0592 229.906 30.4473V50.5312C229.906 51.8516 229.602 52.8418 228.992 53.502C228.4 54.1621 227.63 54.4922 226.682 54.4922C225.734 54.4922 224.947 54.1536 224.32 53.4766C223.711 52.7826 223.406 51.8177 223.406 50.582Z"/>
<path d="M256.186 42.1016H242.627C242.644 43.6758 242.957 45.0638 243.566 46.2656C244.193 47.4674 245.014 48.373 246.029 48.9824C247.062 49.5918 248.196 49.8965 249.432 49.8965C250.261 49.8965 251.014 49.8034 251.691 49.6172C252.385 49.4141 253.054 49.1094 253.697 48.7031C254.34 48.2799 254.933 47.8314 255.475 47.3574C256.016 46.8835 256.719 46.2402 257.582 45.4277C257.938 45.123 258.445 44.9707 259.105 44.9707C259.816 44.9707 260.392 45.1654 260.832 45.5547C261.272 45.944 261.492 46.4941 261.492 47.2051C261.492 47.8314 261.247 48.5677 260.756 49.4141C260.265 50.2435 259.52 51.0475 258.521 51.8262C257.54 52.5879 256.296 53.2227 254.789 53.7305C253.299 54.2383 251.581 54.4922 249.635 54.4922C245.183 54.4922 241.721 53.2227 239.25 50.6836C236.779 48.1445 235.543 44.6999 235.543 40.3496C235.543 38.3014 235.848 36.4056 236.457 34.6621C237.066 32.9017 237.955 31.3952 239.123 30.1426C240.291 28.89 241.73 27.9336 243.439 27.2734C245.149 26.5964 247.045 26.2578 249.127 26.2578C251.835 26.2578 254.154 26.8333 256.084 27.9844C258.031 29.1185 259.486 30.5911 260.451 32.4023C261.416 34.2135 261.898 36.0586 261.898 37.9375C261.898 39.681 261.399 40.8151 260.4 41.3398C259.402 41.8477 257.997 42.1016 256.186 42.1016ZM242.627 38.166H255.195C255.026 35.7962 254.383 34.0273 253.266 32.8594C252.165 31.6745 250.71 31.082 248.898 31.082C247.172 31.082 245.75 31.6829 244.633 32.8848C243.533 34.0697 242.864 35.8301 242.627 38.166Z"/>
</mask>
<path d="M22.541 20.5703V31.2344H38.8164V20.5703C38.8164 19.0469 39.1549 17.9043 39.832 17.1426C40.526 16.3809 41.4316 16 42.5488 16C43.6829 16 44.597 16.3809 45.291 17.1426C46.002 17.8874 46.3574 19.0299 46.3574 20.5703V49.8965C46.3574 51.4368 46.002 52.5879 45.291 53.3496C44.5801 54.1113 43.666 54.4922 42.5488 54.4922C41.4147 54.4922 40.5091 54.1113 39.832 53.3496C39.1549 52.571 38.8164 51.4199 38.8164 49.8965V37.3789H22.541V49.8965C22.541 51.4368 22.1855 52.5879 21.4746 53.3496C20.7637 54.1113 19.8496 54.4922 18.7324 54.4922C17.5983 54.4922 16.6927 54.1113 16.0156 53.3496C15.3385 52.571 15 51.4199 15 49.8965V20.5703C15 19.0469 15.3301 17.9043 15.9902 17.1426C16.6673 16.3809 17.5814 16 18.7324 16C19.8665 16 20.7806 16.3809 21.4746 17.1426C22.1855 17.8874 22.541 19.0299 22.541 20.5703Z" fill="#FFFAF1"/>
<path d="M79.9238 40.4004C79.9238 42.4655 79.6022 44.3698 78.959 46.1133C78.3158 47.8568 77.3848 49.3548 76.166 50.6074C74.9473 51.86 73.4915 52.8249 71.7988 53.502C70.1061 54.1621 68.2018 54.4922 66.0859 54.4922C63.987 54.4922 62.0996 54.1536 60.4238 53.4766C58.748 52.7995 57.2923 51.8346 56.0566 50.582C54.8379 49.3125 53.9069 47.8229 53.2637 46.1133C52.6374 44.3867 52.3242 42.4824 52.3242 40.4004C52.3242 38.3014 52.6458 36.3802 53.2891 34.6367C53.9323 32.8932 54.8548 31.4036 56.0566 30.168C57.2585 28.9323 58.7142 27.9844 60.4238 27.3242C62.1335 26.6471 64.0208 26.3086 66.0859 26.3086C68.1849 26.3086 70.0892 26.6471 71.7988 27.3242C73.5085 28.0013 74.9727 28.9661 76.1914 30.2188C77.4102 31.4714 78.3327 32.9609 78.959 34.6875C79.6022 36.4141 79.9238 38.3184 79.9238 40.4004ZM72.9668 40.4004C72.9668 37.5736 72.3405 35.373 71.0879 33.7988C69.8522 32.2246 68.1849 31.4375 66.0859 31.4375C64.7318 31.4375 63.5384 31.793 62.5059 32.5039C61.4733 33.1979 60.6777 34.2305 60.1191 35.6016C59.5605 36.9727 59.2812 38.5723 59.2812 40.4004C59.2812 42.2116 59.5521 43.7943 60.0938 45.1484C60.6523 46.5026 61.4395 47.5436 62.4551 48.2715C63.4876 48.9824 64.6979 49.3379 66.0859 49.3379C68.1849 49.3379 69.8522 48.5508 71.0879 46.9766C72.3405 45.3854 72.9668 43.1934 72.9668 40.4004Z" fill="#FFFAF1"/>
<path d="M89.5977 30.625L95.209 46.3672L101.252 29.9395C101.726 28.6191 102.191 27.6882 102.648 27.1465C103.105 26.5879 103.799 26.3086 104.73 26.3086C105.611 26.3086 106.355 26.6048 106.965 27.1973C107.591 27.7897 107.904 28.4753 107.904 29.2539C107.904 29.5586 107.845 29.9141 107.727 30.3203C107.625 30.7266 107.498 31.1074 107.346 31.4629C107.21 31.8184 107.049 32.2246 106.863 32.6816L100.211 49.1855C100.025 49.6595 99.7793 50.2604 99.4746 50.9883C99.1868 51.7161 98.8568 52.3424 98.4844 52.8672C98.1289 53.375 97.6803 53.7728 97.1387 54.0605C96.6139 54.3483 95.9707 54.4922 95.209 54.4922C94.2272 54.4922 93.4401 54.2721 92.8477 53.832C92.2721 53.375 91.8405 52.8841 91.5527 52.3594C91.2819 51.8177 90.8164 50.7598 90.1562 49.1855L83.5547 32.8594C83.4023 32.4531 83.2415 32.0469 83.0723 31.6406C82.9199 31.2344 82.7845 30.8197 82.666 30.3965C82.5645 29.9733 82.5137 29.6094 82.5137 29.3047C82.5137 28.8307 82.6576 28.3652 82.9453 27.9082C83.2331 27.4342 83.6309 27.0534 84.1387 26.7656C84.6465 26.4609 85.1966 26.3086 85.7891 26.3086C86.9401 26.3086 87.7272 26.6387 88.1504 27.2988C88.5905 27.959 89.0729 29.0677 89.5977 30.625Z" fill="#FFFAF1"/>
<path d="M131.518 42.1016H117.959C117.976 43.6758 118.289 45.0638 118.898 46.2656C119.525 47.4674 120.346 48.373 121.361 48.9824C122.394 49.5918 123.528 49.8965 124.764 49.8965C125.593 49.8965 126.346 49.8034 127.023 49.6172C127.717 49.4141 128.386 49.1094 129.029 48.7031C129.673 48.2799 130.265 47.8314 130.807 47.3574C131.348 46.8835 132.051 46.2402 132.914 45.4277C133.27 45.123 133.777 44.9707 134.438 44.9707C135.148 44.9707 135.724 45.1654 136.164 45.5547C136.604 45.944 136.824 46.4941 136.824 47.2051C136.824 47.8314 136.579 48.5677 136.088 49.4141C135.597 50.2435 134.852 51.0475 133.854 51.8262C132.872 52.5879 131.628 53.2227 130.121 53.7305C128.632 54.2383 126.913 54.4922 124.967 54.4922C120.515 54.4922 117.053 53.2227 114.582 50.6836C112.111 48.1445 110.875 44.6999 110.875 40.3496C110.875 38.3014 111.18 36.4056 111.789 34.6621C112.398 32.9017 113.287 31.3952 114.455 30.1426C115.623 28.89 117.062 27.9336 118.771 27.2734C120.481 26.5964 122.377 26.2578 124.459 26.2578C127.167 26.2578 129.486 26.8333 131.416 27.9844C133.363 29.1185 134.818 30.5911 135.783 32.4023C136.748 34.2135 137.23 36.0586 137.23 37.9375C137.23 39.681 136.731 40.8151 135.732 41.3398C134.734 41.8477 133.329 42.1016 131.518 42.1016ZM117.959 38.166H130.527C130.358 35.7962 129.715 34.0273 128.598 32.8594C127.497 31.6745 126.042 31.082 124.23 31.082C122.504 31.082 121.082 31.6829 119.965 32.8848C118.865 34.0697 118.196 35.8301 117.959 38.166Z" fill="#FFFAF1"/>
<path d="M149.977 44.4883V50.2773C149.977 51.6823 149.646 52.7402 148.986 53.4512C148.326 54.1452 147.488 54.4922 146.473 54.4922C145.474 54.4922 144.653 54.1367 144.01 53.4258C143.367 52.7148 143.045 51.6654 143.045 50.2773V30.9805C143.045 27.8659 144.171 26.3086 146.422 26.3086C147.573 26.3086 148.402 26.6725 148.91 27.4004C149.418 28.1283 149.697 29.2031 149.748 30.625C150.577 29.2031 151.424 28.1283 152.287 27.4004C153.167 26.6725 154.335 26.3086 155.791 26.3086C157.247 26.3086 158.66 26.6725 160.031 27.4004C161.402 28.1283 162.088 29.0931 162.088 30.2949C162.088 31.1413 161.792 31.8438 161.199 32.4023C160.624 32.944 159.997 33.2148 159.32 33.2148C159.066 33.2148 158.449 33.0625 157.467 32.7578C156.502 32.4362 155.647 32.2754 154.902 32.2754C153.887 32.2754 153.057 32.5462 152.414 33.0879C151.771 33.6126 151.271 34.3997 150.916 35.4492C150.561 36.4987 150.315 37.7513 150.18 39.207C150.044 40.6458 149.977 42.4062 149.977 44.4883Z" fill="#FFFAF1"/>
<path d="M173.971 20.5703V31.2344H190.246V20.5703C190.246 19.0469 190.585 17.9043 191.262 17.1426C191.956 16.3809 192.861 16 193.979 16C195.113 16 196.027 16.3809 196.721 17.1426C197.432 17.8874 197.787 19.0299 197.787 20.5703V49.8965C197.787 51.4368 197.432 52.5879 196.721 53.3496C196.01 54.1113 195.096 54.4922 193.979 54.4922C192.844 54.4922 191.939 54.1113 191.262 53.3496C190.585 52.571 190.246 51.4199 190.246 49.8965V37.3789H173.971V49.8965C173.971 51.4368 173.615 52.5879 172.904 53.3496C172.193 54.1113 171.279 54.4922 170.162 54.4922C169.028 54.4922 168.122 54.1113 167.445 53.3496C166.768 52.571 166.43 51.4199 166.43 49.8965V20.5703C166.43 19.0469 166.76 17.9043 167.42 17.1426C168.097 16.3809 169.011 16 170.162 16C171.296 16 172.21 16.3809 172.904 17.1426C173.615 17.8874 173.971 19.0299 173.971 20.5703Z" fill="#FFFAF1"/>
<path d="M223.406 50.582V49.6934C222.577 50.7428 221.705 51.623 220.791 52.334C219.877 53.0449 218.878 53.5697 217.795 53.9082C216.712 54.2637 215.476 54.4414 214.088 54.4414C212.412 54.4414 210.906 54.0944 209.568 53.4004C208.248 52.7064 207.224 51.75 206.496 50.5312C205.633 49.0586 205.201 46.9427 205.201 44.1836V30.4473C205.201 29.0592 205.514 28.0267 206.141 27.3496C206.767 26.6556 207.596 26.3086 208.629 26.3086C209.678 26.3086 210.525 26.6556 211.168 27.3496C211.811 28.0436 212.133 29.0762 212.133 30.4473V41.543C212.133 43.151 212.268 44.5052 212.539 45.6055C212.81 46.6888 213.292 47.5436 213.986 48.1699C214.697 48.7793 215.654 49.084 216.855 49.084C218.023 49.084 219.124 48.737 220.156 48.043C221.189 47.349 221.942 46.4434 222.416 45.3262C222.805 44.3444 223 42.1947 223 38.877V30.4473C223 29.0762 223.322 28.0436 223.965 27.3496C224.608 26.6556 225.446 26.3086 226.479 26.3086C227.511 26.3086 228.34 26.6556 228.967 27.3496C229.593 28.0267 229.906 29.0592 229.906 30.4473V50.5312C229.906 51.8516 229.602 52.8418 228.992 53.502C228.4 54.1621 227.63 54.4922 226.682 54.4922C225.734 54.4922 224.947 54.1536 224.32 53.4766C223.711 52.7826 223.406 51.8177 223.406 50.582Z" fill="#FFFAF1"/>
<path d="M256.186 42.1016H242.627C242.644 43.6758 242.957 45.0638 243.566 46.2656C244.193 47.4674 245.014 48.373 246.029 48.9824C247.062 49.5918 248.196 49.8965 249.432 49.8965C250.261 49.8965 251.014 49.8034 251.691 49.6172C252.385 49.4141 253.054 49.1094 253.697 48.7031C254.34 48.2799 254.933 47.8314 255.475 47.3574C256.016 46.8835 256.719 46.2402 257.582 45.4277C257.938 45.123 258.445 44.9707 259.105 44.9707C259.816 44.9707 260.392 45.1654 260.832 45.5547C261.272 45.944 261.492 46.4941 261.492 47.2051C261.492 47.8314 261.247 48.5677 260.756 49.4141C260.265 50.2435 259.52 51.0475 258.521 51.8262C257.54 52.5879 256.296 53.2227 254.789 53.7305C253.299 54.2383 251.581 54.4922 249.635 54.4922C245.183 54.4922 241.721 53.2227 239.25 50.6836C236.779 48.1445 235.543 44.6999 235.543 40.3496C235.543 38.3014 235.848 36.4056 236.457 34.6621C237.066 32.9017 237.955 31.3952 239.123 30.1426C240.291 28.89 241.73 27.9336 243.439 27.2734C245.149 26.5964 247.045 26.2578 249.127 26.2578C251.835 26.2578 254.154 26.8333 256.084 27.9844C258.031 29.1185 259.486 30.5911 260.451 32.4023C261.416 34.2135 261.898 36.0586 261.898 37.9375C261.898 39.681 261.399 40.8151 260.4 41.3398C259.402 41.8477 257.997 42.1016 256.186 42.1016ZM242.627 38.166H255.195C255.026 35.7962 254.383 34.0273 253.266 32.8594C252.165 31.6745 250.71 31.082 248.898 31.082C247.172 31.082 245.75 31.6829 244.633 32.8848C243.533 34.0697 242.864 35.8301 242.627 38.166Z" fill="#FFFAF1"/>
<path d="M22.541 20.5703V31.2344H38.8164V20.5703C38.8164 19.0469 39.1549 17.9043 39.832 17.1426C40.526 16.3809 41.4316 16 42.5488 16C43.6829 16 44.597 16.3809 45.291 17.1426C46.002 17.8874 46.3574 19.0299 46.3574 20.5703V49.8965C46.3574 51.4368 46.002 52.5879 45.291 53.3496C44.5801 54.1113 43.666 54.4922 42.5488 54.4922C41.4147 54.4922 40.5091 54.1113 39.832 53.3496C39.1549 52.571 38.8164 51.4199 38.8164 49.8965V37.3789H22.541V49.8965C22.541 51.4368 22.1855 52.5879 21.4746 53.3496C20.7637 54.1113 19.8496 54.4922 18.7324 54.4922C17.5983 54.4922 16.6927 54.1113 16.0156 53.3496C15.3385 52.571 15 51.4199 15 49.8965V20.5703C15 19.0469 15.3301 17.9043 15.9902 17.1426C16.6673 16.3809 17.5814 16 18.7324 16C19.8665 16 20.7806 16.3809 21.4746 17.1426C22.1855 17.8874 22.541 19.0299 22.541 20.5703Z" stroke="#FF4512" stroke-width="28" stroke-linejoin="round" mask="url(#path-1-outside-1_610_3036)"/>
<path d="M79.9238 40.4004C79.9238 42.4655 79.6022 44.3698 78.959 46.1133C78.3158 47.8568 77.3848 49.3548 76.166 50.6074C74.9473 51.86 73.4915 52.8249 71.7988 53.502C70.1061 54.1621 68.2018 54.4922 66.0859 54.4922C63.987 54.4922 62.0996 54.1536 60.4238 53.4766C58.748 52.7995 57.2923 51.8346 56.0566 50.582C54.8379 49.3125 53.9069 47.8229 53.2637 46.1133C52.6374 44.3867 52.3242 42.4824 52.3242 40.4004C52.3242 38.3014 52.6458 36.3802 53.2891 34.6367C53.9323 32.8932 54.8548 31.4036 56.0566 30.168C57.2585 28.9323 58.7142 27.9844 60.4238 27.3242C62.1335 26.6471 64.0208 26.3086 66.0859 26.3086C68.1849 26.3086 70.0892 26.6471 71.7988 27.3242C73.5085 28.0013 74.9727 28.9661 76.1914 30.2188C77.4102 31.4714 78.3327 32.9609 78.959 34.6875C79.6022 36.4141 79.9238 38.3184 79.9238 40.4004ZM72.9668 40.4004C72.9668 37.5736 72.3405 35.373 71.0879 33.7988C69.8522 32.2246 68.1849 31.4375 66.0859 31.4375C64.7318 31.4375 63.5384 31.793 62.5059 32.5039C61.4733 33.1979 60.6777 34.2305 60.1191 35.6016C59.5605 36.9727 59.2812 38.5723 59.2812 40.4004C59.2812 42.2116 59.5521 43.7943 60.0938 45.1484C60.6523 46.5026 61.4395 47.5436 62.4551 48.2715C63.4876 48.9824 64.6979 49.3379 66.0859 49.3379C68.1849 49.3379 69.8522 48.5508 71.0879 46.9766C72.3405 45.3854 72.9668 43.1934 72.9668 40.4004Z" stroke="#FF4512" stroke-width="28" stroke-linejoin="round" mask="url(#path-1-outside-1_610_3036)"/>
<path d="M89.5977 30.625L95.209 46.3672L101.252 29.9395C101.726 28.6191 102.191 27.6882 102.648 27.1465C103.105 26.5879 103.799 26.3086 104.73 26.3086C105.611 26.3086 106.355 26.6048 106.965 27.1973C107.591 27.7897 107.904 28.4753 107.904 29.2539C107.904 29.5586 107.845 29.9141 107.727 30.3203C107.625 30.7266 107.498 31.1074 107.346 31.4629C107.21 31.8184 107.049 32.2246 106.863 32.6816L100.211 49.1855C100.025 49.6595 99.7793 50.2604 99.4746 50.9883C99.1868 51.7161 98.8568 52.3424 98.4844 52.8672C98.1289 53.375 97.6803 53.7728 97.1387 54.0605C96.6139 54.3483 95.9707 54.4922 95.209 54.4922C94.2272 54.4922 93.4401 54.2721 92.8477 53.832C92.2721 53.375 91.8405 52.8841 91.5527 52.3594C91.2819 51.8177 90.8164 50.7598 90.1562 49.1855L83.5547 32.8594C83.4023 32.4531 83.2415 32.0469 83.0723 31.6406C82.9199 31.2344 82.7845 30.8197 82.666 30.3965C82.5645 29.9733 82.5137 29.6094 82.5137 29.3047C82.5137 28.8307 82.6576 28.3652 82.9453 27.9082C83.2331 27.4342 83.6309 27.0534 84.1387 26.7656C84.6465 26.4609 85.1966 26.3086 85.7891 26.3086C86.9401 26.3086 87.7272 26.6387 88.1504 27.2988C88.5905 27.959 89.0729 29.0677 89.5977 30.625Z" stroke="#FF4512" stroke-width="28" stroke-linejoin="round" mask="url(#path-1-outside-1_610_3036)"/>
<path d="M131.518 42.1016H117.959C117.976 43.6758 118.289 45.0638 118.898 46.2656C119.525 47.4674 120.346 48.373 121.361 48.9824C122.394 49.5918 123.528 49.8965 124.764 49.8965C125.593 49.8965 126.346 49.8034 127.023 49.6172C127.717 49.4141 128.386 49.1094 129.029 48.7031C129.673 48.2799 130.265 47.8314 130.807 47.3574C131.348 46.8835 132.051 46.2402 132.914 45.4277C133.27 45.123 133.777 44.9707 134.438 44.9707C135.148 44.9707 135.724 45.1654 136.164 45.5547C136.604 45.944 136.824 46.4941 136.824 47.2051C136.824 47.8314 136.579 48.5677 136.088 49.4141C135.597 50.2435 134.852 51.0475 133.854 51.8262C132.872 52.5879 131.628 53.2227 130.121 53.7305C128.632 54.2383 126.913 54.4922 124.967 54.4922C120.515 54.4922 117.053 53.2227 114.582 50.6836C112.111 48.1445 110.875 44.6999 110.875 40.3496C110.875 38.3014 111.18 36.4056 111.789 34.6621C112.398 32.9017 113.287 31.3952 114.455 30.1426C115.623 28.89 117.062 27.9336 118.771 27.2734C120.481 26.5964 122.377 26.2578 124.459 26.2578C127.167 26.2578 129.486 26.8333 131.416 27.9844C133.363 29.1185 134.818 30.5911 135.783 32.4023C136.748 34.2135 137.23 36.0586 137.23 37.9375C137.23 39.681 136.731 40.8151 135.732 41.3398C134.734 41.8477 133.329 42.1016 131.518 42.1016ZM117.959 38.166H130.527C130.358 35.7962 129.715 34.0273 128.598 32.8594C127.497 31.6745 126.042 31.082 124.23 31.082C122.504 31.082 121.082 31.6829 119.965 32.8848C118.865 34.0697 118.196 35.8301 117.959 38.166Z" stroke="#FF4512" stroke-width="28" stroke-linejoin="round" mask="url(#path-1-outside-1_610_3036)"/>
<path d="M149.977 44.4883V50.2773C149.977 51.6823 149.646 52.7402 148.986 53.4512C148.326 54.1452 147.488 54.4922 146.473 54.4922C145.474 54.4922 144.653 54.1367 144.01 53.4258C143.367 52.7148 143.045 51.6654 143.045 50.2773V30.9805C143.045 27.8659 144.171 26.3086 146.422 26.3086C147.573 26.3086 148.402 26.6725 148.91 27.4004C149.418 28.1283 149.697 29.2031 149.748 30.625C150.577 29.2031 151.424 28.1283 152.287 27.4004C153.167 26.6725 154.335 26.3086 155.791 26.3086C157.247 26.3086 158.66 26.6725 160.031 27.4004C161.402 28.1283 162.088 29.0931 162.088 30.2949C162.088 31.1413 161.792 31.8438 161.199 32.4023C160.624 32.944 159.997 33.2148 159.32 33.2148C159.066 33.2148 158.449 33.0625 157.467 32.7578C156.502 32.4362 155.647 32.2754 154.902 32.2754C153.887 32.2754 153.057 32.5462 152.414 33.0879C151.771 33.6126 151.271 34.3997 150.916 35.4492C150.561 36.4987 150.315 37.7513 150.18 39.207C150.044 40.6458 149.977 42.4062 149.977 44.4883Z" stroke="#FF4512" stroke-width="28" stroke-linejoin="round" mask="url(#path-1-outside-1_610_3036)"/>
<path d="M173.971 20.5703V31.2344H190.246V20.5703C190.246 19.0469 190.585 17.9043 191.262 17.1426C191.956 16.3809 192.861 16 193.979 16C195.113 16 196.027 16.3809 196.721 17.1426C197.432 17.8874 197.787 19.0299 197.787 20.5703V49.8965C197.787 51.4368 197.432 52.5879 196.721 53.3496C196.01 54.1113 195.096 54.4922 193.979 54.4922C192.844 54.4922 191.939 54.1113 191.262 53.3496C190.585 52.571 190.246 51.4199 190.246 49.8965V37.3789H173.971V49.8965C173.971 51.4368 173.615 52.5879 172.904 53.3496C172.193 54.1113 171.279 54.4922 170.162 54.4922C169.028 54.4922 168.122 54.1113 167.445 53.3496C166.768 52.571 166.43 51.4199 166.43 49.8965V20.5703C166.43 19.0469 166.76 17.9043 167.42 17.1426C168.097 16.3809 169.011 16 170.162 16C171.296 16 172.21 16.3809 172.904 17.1426C173.615 17.8874 173.971 19.0299 173.971 20.5703Z" stroke="#FF4512" stroke-width="28" stroke-linejoin="round" mask="url(#path-1-outside-1_610_3036)"/>
<path d="M223.406 50.582V49.6934C222.577 50.7428 221.705 51.623 220.791 52.334C219.877 53.0449 218.878 53.5697 217.795 53.9082C216.712 54.2637 215.476 54.4414 214.088 54.4414C212.412 54.4414 210.906 54.0944 209.568 53.4004C208.248 52.7064 207.224 51.75 206.496 50.5312C205.633 49.0586 205.201 46.9427 205.201 44.1836V30.4473C205.201 29.0592 205.514 28.0267 206.141 27.3496C206.767 26.6556 207.596 26.3086 208.629 26.3086C209.678 26.3086 210.525 26.6556 211.168 27.3496C211.811 28.0436 212.133 29.0762 212.133 30.4473V41.543C212.133 43.151 212.268 44.5052 212.539 45.6055C212.81 46.6888 213.292 47.5436 213.986 48.1699C214.697 48.7793 215.654 49.084 216.855 49.084C218.023 49.084 219.124 48.737 220.156 48.043C221.189 47.349 221.942 46.4434 222.416 45.3262C222.805 44.3444 223 42.1947 223 38.877V30.4473C223 29.0762 223.322 28.0436 223.965 27.3496C224.608 26.6556 225.446 26.3086 226.479 26.3086C227.511 26.3086 228.34 26.6556 228.967 27.3496C229.593 28.0267 229.906 29.0592 229.906 30.4473V50.5312C229.906 51.8516 229.602 52.8418 228.992 53.502C228.4 54.1621 227.63 54.4922 226.682 54.4922C225.734 54.4922 224.947 54.1536 224.32 53.4766C223.711 52.7826 223.406 51.8177 223.406 50.582Z" stroke="#FF4512" stroke-width="28" stroke-linejoin="round" mask="url(#path-1-outside-1_610_3036)"/>
<path d="M256.186 42.1016H242.627C242.644 43.6758 242.957 45.0638 243.566 46.2656C244.193 47.4674 245.014 48.373 246.029 48.9824C247.062 49.5918 248.196 49.8965 249.432 49.8965C250.261 49.8965 251.014 49.8034 251.691 49.6172C252.385 49.4141 253.054 49.1094 253.697 48.7031C254.34 48.2799 254.933 47.8314 255.475 47.3574C256.016 46.8835 256.719 46.2402 257.582 45.4277C257.938 45.123 258.445 44.9707 259.105 44.9707C259.816 44.9707 260.392 45.1654 260.832 45.5547C261.272 45.944 261.492 46.4941 261.492 47.2051C261.492 47.8314 261.247 48.5677 260.756 49.4141C260.265 50.2435 259.52 51.0475 258.521 51.8262C257.54 52.5879 256.296 53.2227 254.789 53.7305C253.299 54.2383 251.581 54.4922 249.635 54.4922C245.183 54.4922 241.721 53.2227 239.25 50.6836C236.779 48.1445 235.543 44.6999 235.543 40.3496C235.543 38.3014 235.848 36.4056 236.457 34.6621C237.066 32.9017 237.955 31.3952 239.123 30.1426C240.291 28.89 241.73 27.9336 243.439 27.2734C245.149 26.5964 247.045 26.2578 249.127 26.2578C251.835 26.2578 254.154 26.8333 256.084 27.9844C258.031 29.1185 259.486 30.5911 260.451 32.4023C261.416 34.2135 261.898 36.0586 261.898 37.9375C261.898 39.681 261.399 40.8151 260.4 41.3398C259.402 41.8477 257.997 42.1016 256.186 42.1016ZM242.627 38.166H255.195C255.026 35.7962 254.383 34.0273 253.266 32.8594C252.165 31.6745 250.71 31.082 248.898 31.082C247.172 31.082 245.75 31.6829 244.633 32.8848C243.533 34.0697 242.864 35.8301 242.627 38.166Z" stroke="#FF4512" stroke-width="28" stroke-linejoin="round" mask="url(#path-1-outside-1_610_3036)"/>
</g>
<defs>
<filter id="filter0_b_610_3036" x="-9" y="-8" width="294.898" height="86.4922" filterUnits="userSpaceOnUse" color-interpolation-filters="sRGB">
<feFlood flood-opacity="0" result="BackgroundImageFix"/>
<feGaussianBlur in="BackgroundImageFix" stdDeviation="5"/>
<feComposite in2="SourceAlpha" operator="in" result="effect1_backgroundBlur_610_3036"/>
<feBlend mode="normal" in="SourceGraphic" in2="effect1_backgroundBlur_610_3036" result="shape"/>
</filter>
</defs>
</svg>
